<svg width="9" height="17" viewBox="0 0 9 17" fill="none" xmlns="http://www.w3.org/2000/svg">
<path d="M8.04147 -8.43908e-08C8.27898 -6.34798e-08 8.53346 0.089508 8.72008 0.286427C9.09331 0.680265 9.09331 1.30683 8.72008 1.70067L2.29029 8.50334L8.72008 15.2881C9.09331 15.6819 9.09331 16.3085 8.72008 16.7023C8.34684 17.0962 7.75306 17.0962 7.37983 16.7202L0.271441 9.21941C0.0848243 9.02249 -2.39371e-07 8.77186 -2.16059e-07 8.50334C-1.92748e-07 8.23481 0.10179 7.98418 0.271441 7.78727L7.37983 0.286426C7.56645 0.0895079 7.80396 -1.05302e-07 8.04147 -8.43908e-08Z" fill="white"/>
</svg>
