<svg width="17" height="17" viewBox="0 0 17 17" fill="none" xmlns="http://www.w3.org/2000/svg">
<path fill-rule="evenodd" clip-rule="evenodd" d="M9.11963 1.46866C9.11963 0.916372 8.67191 0.468657 8.11963 0.468657C7.56734 0.468657 7.11963 0.916372 7.11963 1.46866L7.11963 7.60025L1.25073 7.60025C0.698448 7.60025 0.250733 8.04796 0.250733 8.60025C0.250733 9.15253 0.698448 9.60025 1.25073 9.60025L7.11963 9.60025L7.11963 15.4687C7.11963 16.0209 7.56735 16.4687 8.11963 16.4687C8.67192 16.4687 9.11963 16.0209 9.11963 15.4687L9.11963 9.60025L15.2507 9.60025C15.803 9.60025 16.2507 9.15253 16.2507 8.60025C16.2507 8.04796 15.803 7.60025 15.2507 7.60025L9.11963 7.60025L9.11963 1.46866Z" fill="black"/>
</svg>
