<svg width="176" height="53" viewBox="0 0 176 53" fill="none" xmlns="http://www.w3.org/2000/svg">
<g clip-path="url(#clip0_158_974)">
<path d="M43.5397 52.9989C43.2745 52.9989 42.9792 52.9563 42.6537 52.8525C42.6402 52.848 42.6268 52.8435 42.614 52.8384C42.5412 52.8104 35.2385 49.9623 28.036 45.3512C27.7423 45.1632 27.4526 44.9747 27.1668 44.7856C26.8742 44.9769 26.5767 45.1683 26.2757 45.359C18.987 49.9724 11.5976 52.8227 11.5238 52.8513C11.5104 52.8564 11.4969 52.8614 11.483 52.8654C10.7424 53.0971 10.0086 52.9843 9.41677 52.5478C8.81101 52.1012 8.44968 51.3785 8.44968 50.6154V27.1891H3.01573C2.0945 27.1891 1.33324 26.6779 0.979742 25.8211C0.603308 24.9088 0.803551 23.841 1.47867 23.1638C7.62857 16.9951 23.5003 2.7696 24.0742 2.25564L24.0787 2.25115C25.5659 0.759194 26.3126 0.0101306 27.2865 -0.00109132C28.2921 -0.0128743 29.0836 0.780515 30.52 2.22085C31.0748 2.72079 46.621 16.7325 52.9197 23.0504C53.6631 23.7961 53.8823 24.7842 53.5065 25.6937C53.1373 26.5881 52.2653 27.1891 51.3368 27.1891H45.8139L45.9001 50.6317C45.9001 51.2034 45.5801 52.0507 44.8781 52.5658C44.5789 52.7846 44.1342 52.9989 43.5397 52.9989ZM43.0978 51.5221C43.4921 51.6439 43.8048 51.6147 44.052 51.4335C44.3652 51.204 44.5006 50.7927 44.5006 50.6339L44.4122 26.4899C44.4117 26.3037 44.4849 26.1247 44.6164 25.9922C44.7478 25.8604 44.9257 25.7858 45.1114 25.7858H51.3362C51.7004 25.7858 52.0611 25.5271 52.2144 25.1568C52.305 24.9374 52.3884 24.5014 51.9308 24.0419C45.5762 17.6678 29.7308 3.39578 29.5719 3.25214C29.5624 3.24373 29.5534 3.23475 29.5445 3.22633C28.5685 2.24722 27.7255 1.40165 27.306 1.40165C27.3049 1.40165 27.3038 1.40165 27.3027 1.40165C26.8983 1.40614 26.1303 2.17652 25.0676 3.2426L25.0491 3.26112C25.0396 3.27066 25.0301 3.27964 25.02 3.28861C24.8573 3.4345 8.67118 17.9321 2.46702 24.1558C2.1454 24.4784 2.14036 24.9666 2.27125 25.2841C2.36578 25.5131 2.57161 25.7858 3.01517 25.7858H9.14829C9.53423 25.7858 9.84746 26.1 9.84746 26.4871V50.6154C9.84746 50.9296 9.9996 51.2371 10.2446 51.4177C10.4678 51.5821 10.7446 51.622 11.0461 51.5328C11.4897 51.3605 18.5681 48.582 25.5469 44.1617C25.6677 44.0853 25.7874 44.0085 25.9066 43.9322C22.6378 41.6608 19.9675 39.3463 17.9489 37.0318C14.8435 33.4722 13.2656 29.8902 13.2594 26.385C13.2594 26.3833 13.2594 26.3816 13.2594 26.38V26.3637C13.2594 26.362 13.2594 26.3603 13.2594 26.3586C13.2644 22.9584 14.4983 19.584 16.6468 17.0966C18.4282 15.034 21.7048 12.5748 27.1953 12.5748C32.6796 12.5748 35.9752 15.0324 37.7746 17.0938C39.9207 19.5531 41.1681 22.8636 41.2111 26.2015C41.2234 26.2537 41.2302 26.3081 41.2302 26.3637C41.2302 29.8773 39.6332 33.4683 36.4831 37.0369C34.4404 39.3514 31.7382 41.667 28.4314 43.9389C28.55 44.0158 28.6686 44.0921 28.7883 44.1689C35.6894 48.5865 42.6716 51.3549 43.0978 51.5221ZM14.6578 26.371C14.66 29.5311 16.1215 32.8068 19.0016 36.1082C21.0403 38.4452 23.7833 40.7928 27.1712 43.1012C30.6022 40.7895 33.3793 38.439 35.4427 36.0993C38.3037 32.8556 39.7792 29.6371 39.8307 26.5303C39.8201 26.4815 39.8145 26.431 39.8145 26.3794C39.8145 23.3164 38.6874 20.2685 36.723 18.0174C34.4163 15.3741 31.1218 13.9769 27.1958 13.9769C23.2676 13.9769 19.9854 15.3729 17.7039 18.0146C15.7703 20.2545 14.66 23.299 14.6578 26.371Z" fill="#E5583B"/>
<path d="M78.8947 20.0655C78.8947 19.4303 78.643 18.9102 78.1401 18.5051C77.6373 18.1 76.7485 17.737 75.4743 17.416C73.6565 16.9671 72.2576 16.3735 71.2776 15.6334C70.2977 14.8939 69.8082 13.9243 69.8082 12.7253C69.8082 11.4914 70.3502 10.4747 71.4342 9.67514C72.5182 8.87557 73.9171 8.47607 75.6309 8.47607C77.4191 8.47607 78.8555 8.93 79.9395 9.83785C81.0235 10.7463 81.547 11.8342 81.5096 13.1034L81.4872 13.1663H78.8829C78.8829 12.3813 78.5999 11.745 78.0333 11.2574C77.4672 10.7704 76.6584 10.5263 75.608 10.5263C74.6169 10.5263 73.855 10.7294 73.3226 11.1351C72.7895 11.5408 72.5233 12.0654 72.5233 12.709C72.5233 13.2897 72.8119 13.7728 73.3897 14.1572C73.9669 14.5421 74.9228 14.9057 76.2563 15.2485C78.007 15.6901 79.3371 16.3 80.246 17.0788C81.1549 17.857 81.6097 18.8491 81.6097 20.0554C81.6097 21.3313 81.0677 22.3464 79.9837 23.0999C78.8997 23.8535 77.4745 24.2305 75.7087 24.2305C74.01 24.2305 72.5193 23.8047 71.2385 22.9523C69.957 22.1006 69.3345 20.9386 69.372 19.4657L69.3943 19.4029H72.0098C72.0098 20.3354 72.3521 21.0312 73.0379 21.4907C73.723 21.9502 74.6135 22.1797 75.7087 22.1797C76.7144 22.1797 77.4969 21.9895 78.0557 21.6091C78.615 21.2292 78.8947 20.7147 78.8947 20.0655Z" fill="black"/>
<path d="M87.1086 21.5596H84.4042V24.0104H87.1086V21.5596Z" fill="black"/>
<path d="M93.7361 8.69702H91.0205V24.0105H93.7361V8.69702Z" fill="black"/>
<path d="M100.085 21.5596H97.3802V24.0104H100.085V21.5596Z" fill="black"/>
<path d="M112.658 20.0655C112.658 19.4303 112.406 18.9102 111.903 18.5051C111.4 18.1 110.512 17.737 109.238 17.416C107.42 16.9671 106.021 16.3735 105.041 15.6334C104.061 14.8939 103.571 13.9243 103.571 12.7253C103.571 11.4914 104.113 10.4747 105.197 9.67514C106.281 8.87557 107.68 8.47607 109.394 8.47607C111.182 8.47607 112.618 8.93 113.702 9.83785C114.786 10.7463 115.31 11.8342 115.272 13.1034L115.25 13.1663H112.646C112.646 12.3813 112.363 11.745 111.796 11.2574C111.23 10.7704 110.421 10.5263 109.371 10.5263C108.38 10.5263 107.618 10.7294 107.085 11.1351C106.552 11.5408 106.286 12.0654 106.286 12.709C106.286 13.2897 106.575 13.7728 107.152 14.1572C107.729 14.5421 108.685 14.9057 110.018 15.2485C111.769 15.6901 113.099 16.3 114.008 17.0788C114.917 17.857 115.372 18.8491 115.372 20.0554C115.372 21.3313 114.83 22.3464 113.746 23.0999C112.662 23.8535 111.237 24.2305 109.471 24.2305C107.772 24.2305 106.282 23.8047 105.001 22.9523C103.719 22.1006 103.097 20.9386 103.134 19.4657L103.156 19.4029H105.772C105.772 20.3354 106.114 21.0312 106.8 21.4907C107.485 21.9502 108.376 22.1797 109.471 22.1797C110.476 22.1797 111.259 21.9895 111.818 21.6091C112.378 21.2292 112.658 20.7147 112.658 20.0655Z" fill="black"/>
<path d="M120.977 21.5596H118.273V24.0104H120.977V21.5596Z" fill="black"/>
<path d="M133.23 10.7478H128.313V24.0105H125.596V10.7478H120.679V8.69702H133.23V10.7478Z" fill="black"/>
<path d="M134.83 21.5596H132.125V24.0104H134.83V21.5596Z" fill="black"/>
<path d="M148.988 17.1213H141.869V21.9596H150.128V24.0105H139.154V8.69702H150.05V10.7478H141.869V15.0705H148.988V17.1213Z" fill="black"/>
<path d="M155.571 21.5596H152.866V24.0104H155.571V21.5596Z" fill="black"/>
<path d="M162.333 8.69702L167.016 20.4767H167.083L171.777 8.69702H175.298V24.0105H172.582V18.7939L172.85 12.1573L172.783 12.1466L167.955 24.0105H166.133L161.328 12.1781L161.26 12.1887L161.528 18.7939V24.0105H158.813V8.69702H162.333Z" fill="black"/>
<path d="M69.8156 38.5142V44.61H69.2904V30.4092H73.7142C75.1791 30.4092 76.3067 30.7784 77.0976 31.5162C77.8885 32.2541 78.284 33.2343 78.284 34.4569C78.284 35.6925 77.8902 36.6777 77.1027 37.4122C76.3151 38.1473 75.1858 38.5142 73.7142 38.5142H69.8156ZM69.8156 37.9873H73.7148C75.0566 37.9873 76.0662 37.6524 76.7436 36.983C77.4209 36.3136 77.7599 35.4776 77.7599 34.4766C77.7599 33.4492 77.4226 32.6025 76.7486 31.9359C76.0746 31.2693 75.0633 30.936 73.7153 30.936H69.8162V37.9873H69.8156Z" fill="black"/>
<path d="M69.8155 44.8905H69.2903C69.1359 44.8905 69.0106 44.7648 69.0106 44.61V30.4092C69.0106 30.2543 69.1359 30.1287 69.2903 30.1287H73.7141C75.245 30.1287 76.4476 30.5265 77.2882 31.3109C78.1345 32.1009 78.5635 33.1591 78.5635 34.457C78.5635 35.7677 78.1362 36.831 77.2927 37.6176C76.4554 38.3987 75.2511 38.7948 73.7141 38.7948H70.0946V44.61C70.0952 44.7648 69.9699 44.8905 69.8155 44.8905ZM69.57 38.1226V38.3796C69.6024 38.3207 69.655 38.2747 69.7187 38.2511C69.655 38.2275 69.6024 38.1815 69.57 38.1226ZM70.0952 37.7068H73.7146C74.9743 37.7068 75.9268 37.396 76.5471 36.7833C77.1747 36.1627 77.4795 35.408 77.4795 34.4766C77.4795 33.5188 77.1758 32.7529 76.5516 32.1357C76.2473 31.835 75.8586 31.6049 75.3966 31.4528C74.9217 31.2963 74.3556 31.2166 73.7141 31.2166H70.0946V37.7068H70.0952ZM77.5808 36.3422C77.4225 36.6278 77.2234 36.8938 76.984 37.1379C77.2267 36.8983 77.4253 36.634 77.5808 36.3422ZM69.57 30.6898V30.8009C69.5957 30.7543 69.6343 30.715 69.6807 30.6898H69.57Z" fill="black"/>
<path d="M89.7969 34.4373L89.1162 34.3789C88.1765 34.3789 87.413 34.683 86.8263 35.2907C86.2395 35.8989 85.8586 36.7002 85.6835 37.695V44.6099H85.1583V34.0568H85.5862L85.6835 35.8905V36.2513C85.9755 35.4972 86.4096 34.9103 86.9862 34.4906C87.5629 34.0714 88.2727 33.8616 89.1156 33.8616C89.2644 33.8616 89.4026 33.8728 89.529 33.8958C89.6554 33.9188 89.7639 33.9429 89.8545 33.9687L89.7969 34.4373Z" fill="black"/>
<path d="M85.6839 44.8905H85.1587C85.0043 44.8905 84.879 44.7648 84.879 44.61V34.0569C84.879 33.902 85.0043 33.7763 85.1587 33.7763H85.5866C85.7354 33.7763 85.8579 33.893 85.8657 34.0417L85.9267 35.1869C86.1778 34.8233 86.4771 34.5142 86.8227 34.2633C87.4453 33.8105 88.2171 33.5811 89.116 33.5811C89.2804 33.5811 89.4365 33.594 89.5786 33.6198C89.7134 33.6439 89.8319 33.6708 89.9315 33.6994C90.0641 33.7376 90.1497 33.8667 90.1323 34.0041L90.0741 34.4721C90.0557 34.6213 89.9226 34.7302 89.7727 34.7167L89.1043 34.6595C88.2412 34.6617 87.5616 34.9322 87.0274 35.486C86.4877 36.0454 86.1297 36.7967 85.9636 37.7197V44.61C85.9636 44.7648 85.8383 44.8905 85.6839 44.8905ZM85.4384 36.386V37.4868C85.5072 37.1468 85.6 36.8276 85.7175 36.5296C85.6895 36.533 85.661 36.5324 85.6319 36.5268C85.5474 36.5111 85.4775 36.4578 85.4384 36.386Z" fill="black"/>
<path d="M94.931 39.1286C94.931 37.5811 95.3572 36.3164 96.2097 35.3344C97.0621 34.3525 98.169 33.8616 99.5299 33.8616C100.897 33.8616 102.008 34.3525 102.86 35.3344C103.713 36.3164 104.139 37.5811 104.139 39.1286V39.5382C104.139 41.0924 103.713 42.3605 102.86 43.3418C102.008 44.3238 100.904 44.8147 99.5495 44.8147C98.1819 44.8147 97.0699 44.3238 96.2147 43.3418C95.3589 42.3599 94.931 41.0924 94.931 39.5382V39.1286ZM95.4562 39.5382C95.4562 40.8646 95.826 41.9879 96.5649 42.9081C97.3037 43.8283 98.2988 44.2884 99.55 44.2884C100.782 44.2884 101.767 43.8266 102.506 42.9036C103.244 41.9806 103.614 40.859 103.614 39.5387V39.1291C103.614 37.8353 103.242 36.7215 102.496 35.7884C101.75 34.8553 100.762 34.389 99.5305 34.389C98.2926 34.389 97.3037 34.8558 96.5649 35.7884C95.826 36.7215 95.4562 37.8353 95.4562 39.1291V39.5382Z" fill="black"/>
<path d="M99.5493 45.0952C98.104 45.0952 96.911 44.5672 96.0037 43.5264C95.1065 42.4968 94.6512 41.1546 94.6512 39.5381V39.1285C94.6512 37.5188 95.1043 36.18 95.9987 35.1504C96.9026 34.109 98.0906 33.5815 99.5298 33.5815C100.976 33.5815 102.167 34.1095 103.071 35.1504C103.965 36.1805 104.418 37.5188 104.418 39.1285V39.5381C104.418 41.1546 103.965 42.4962 103.071 43.5264C102.167 44.5678 100.982 45.0952 99.5493 45.0952ZM99.5298 34.6689C98.3708 34.6689 97.4725 35.092 96.7834 35.9623C96.0882 36.8404 95.7358 37.9053 95.7358 39.1285V39.5381C95.7358 40.7927 96.0876 41.8672 96.7823 42.7319C97.4714 43.5904 98.377 44.0073 99.5493 44.0073C100.702 44.0073 101.598 43.5887 102.287 42.7274C102.981 41.8594 103.334 40.7866 103.334 39.5381V39.1285C103.334 37.9059 102.978 36.8409 102.277 35.9634C101.581 35.0926 100.683 34.6689 99.5298 34.6689ZM102.186 35.0583C102.373 35.2222 102.55 35.4068 102.713 35.6127C103.052 36.0369 103.319 36.4987 103.512 36.9958C103.311 36.4431 103.023 35.9494 102.649 35.5184C102.502 35.3496 102.348 35.1958 102.186 35.0583ZM96.4791 35.4522C96.4596 35.4741 96.44 35.4966 96.4204 35.519C96.0798 35.9112 95.8107 36.3556 95.6133 36.8494C95.799 36.4078 96.0429 35.9954 96.3455 35.6138C96.3891 35.5583 96.4338 35.5044 96.4791 35.4522Z" fill="black"/>
<path d="M113.25 42.3768L113.745 43.8009H113.804L114.309 42.3768L117.547 34.0569H118.111L114.018 44.6004L114.027 44.61H113.522L109.438 34.0569H110.002L113.25 42.3768Z" fill="black"/>
<path d="M114.027 44.8905H113.522C113.406 44.8905 113.302 44.8193 113.261 44.7116L109.177 34.1585C109.144 34.0721 109.155 33.975 109.207 33.8987C109.26 33.8224 109.346 33.7764 109.438 33.7764H110.002C110.117 33.7764 110.221 33.8471 110.263 33.9548L113.51 42.2747C113.511 42.2781 113.513 42.2815 113.514 42.2843L113.777 43.0401L114.046 42.2826C114.047 42.2798 114.048 42.2775 114.049 42.2747L117.287 33.9548C117.329 33.8471 117.432 33.7764 117.548 33.7764H118.111C118.204 33.7764 118.29 33.8224 118.342 33.8987C118.394 33.975 118.406 34.0726 118.372 34.159L114.307 44.6302C114.305 44.6599 114.298 44.6897 114.286 44.7183C114.242 44.8227 114.14 44.8905 114.027 44.8905ZM113.713 44.3295H113.823L113.931 44.0506C113.893 44.0702 113.85 44.0815 113.805 44.0815H113.746C113.694 44.0815 113.645 44.0669 113.603 44.0416L113.713 44.3295Z" fill="black"/>
<path d="M127.845 44.8147C126.645 44.8147 125.61 44.3288 124.738 43.3564C123.866 42.3846 123.43 41.1766 123.43 39.7329V39.1089C123.43 37.594 123.851 36.3405 124.694 35.349C125.537 34.3576 126.577 33.8616 127.815 33.8616C129.002 33.8616 129.969 34.2515 130.718 35.032C131.466 35.8125 131.841 36.8595 131.841 38.1725V38.9821H123.956V39.1089V39.7329C123.956 41.0071 124.329 42.085 125.074 42.9659C125.82 43.8468 126.743 44.2873 127.845 44.2873C128.629 44.2873 129.285 44.1801 129.814 43.9652C130.342 43.7503 130.795 43.4288 131.17 42.9996L131.452 43.4092C131.037 43.871 130.533 44.2205 129.94 44.4579C129.346 44.6963 128.648 44.8147 127.845 44.8147ZM127.815 34.3884C126.772 34.3884 125.903 34.7705 125.21 35.5342C124.516 36.2984 124.124 37.2523 124.033 38.3969L124.062 38.4553H131.316V38.1332C131.316 37.0604 130.991 36.1677 130.344 35.4562C129.695 34.7447 128.853 34.3884 127.815 34.3884Z" fill="black"/>
<path d="M127.845 45.0952C126.568 45.0952 125.453 44.5734 124.53 43.5444C123.615 42.5237 123.151 41.2416 123.151 39.7334V39.1095C123.151 37.5328 123.599 36.2069 124.482 35.1678C125.376 34.1151 126.498 33.5815 127.815 33.5815C129.075 33.5815 130.119 34.004 130.919 34.8378C131.716 35.6688 132.12 36.7905 132.12 38.173V38.9827C132.12 39.1375 131.995 39.2632 131.84 39.2632H124.235V39.734C124.235 40.9341 124.589 41.9609 125.287 42.7858C125.982 43.6083 126.819 44.0084 127.845 44.0084C128.589 44.0084 129.216 43.9068 129.709 43.7071C130.194 43.5101 130.615 43.2099 130.96 42.8161C131.017 42.751 131.1 42.7162 131.187 42.7212C131.273 42.7263 131.352 42.7706 131.4 42.8419L131.682 43.2515C131.756 43.3586 131.746 43.5023 131.66 43.5988C131.218 44.0903 130.674 44.4679 130.044 44.7199C129.42 44.969 128.68 45.0952 127.845 45.0952ZM123.786 38.0709C123.748 38.3183 123.724 38.5747 123.715 38.839C123.76 38.7638 123.839 38.7111 123.93 38.7027C123.88 38.6757 123.839 38.6336 123.812 38.5809L123.783 38.5226C123.76 38.4771 123.751 38.426 123.755 38.375C123.762 38.2723 123.773 38.1707 123.786 38.0709ZM131.45 38.7015H131.561V38.5904C131.535 38.637 131.496 38.6757 131.45 38.7015ZM124.336 38.1752H131.036V38.1337C131.036 37.1243 130.741 36.3101 130.136 35.6458C129.538 34.9888 128.779 34.6689 127.815 34.6689C126.844 34.6689 126.06 35.014 125.416 35.7232C124.819 36.382 124.455 37.2057 124.336 38.1752ZM130.354 35.0673C130.421 35.1307 130.486 35.1975 130.55 35.2676C130.73 35.4651 130.887 35.6767 131.02 35.9011C130.879 35.6554 130.712 35.4309 130.516 35.2272C130.463 35.1717 130.409 35.1184 130.354 35.0673Z" fill="black"/>
<path d="M138.919 34.0568L138.988 36.2316C139.305 35.4775 139.769 34.894 140.378 34.481C140.987 34.0681 141.74 33.8616 142.634 33.8616C143.781 33.8616 144.642 34.224 145.215 34.949C145.789 35.6739 146.076 36.823 146.076 38.3969V44.6099H145.55V38.3778C145.55 36.9145 145.289 35.8843 144.768 35.2862C144.246 34.6881 143.538 34.389 142.644 34.389C141.509 34.389 140.653 34.729 140.077 35.4085C139.499 36.088 139.14 36.9577 138.998 38.0176V44.611H138.473V34.0568H138.919Z" fill="black"/>
<path d="M146.075 44.8905H145.55C145.396 44.8905 145.271 44.7648 145.271 44.61V38.3779C145.271 36.992 145.031 36.0134 144.557 35.4708C144.086 34.9316 143.46 34.6696 142.643 34.6696C141.585 34.6696 140.815 34.9709 140.289 35.5903C139.753 36.221 139.413 37.0441 139.277 38.0367V44.6111C139.277 44.7659 139.151 44.8916 138.997 44.8916H138.472C138.317 44.8916 138.192 44.7659 138.192 44.6111V34.0569C138.192 33.902 138.317 33.7763 138.472 33.7763H138.919C139.07 33.7763 139.194 33.8964 139.199 34.0479L139.235 35.2122C139.511 34.8289 139.841 34.5069 140.221 34.2488C140.875 33.8061 141.686 33.5811 142.634 33.5811C143.865 33.5811 144.807 33.9828 145.434 34.7745C146.046 35.5471 146.356 36.7658 146.356 38.3969V44.61C146.355 44.7648 146.23 44.8905 146.075 44.8905ZM138.752 36.3832V37.7668C138.828 37.3056 138.947 36.8781 139.107 36.4853C139.056 36.51 138.996 36.5184 138.937 36.5072C138.858 36.4931 138.792 36.4466 138.752 36.3832ZM144.083 34.4132C144.42 34.5759 144.716 34.8031 144.972 35.0943C144.73 34.797 144.435 34.5703 144.083 34.4132Z" fill="black"/>
<path d="M157.121 44.2884C158.01 44.2884 158.794 44.0443 159.475 43.5567C160.155 43.0692 160.495 42.3375 160.495 41.3623H160.943L160.962 41.4207C160.988 42.4542 160.611 43.2784 159.83 43.8928C159.049 44.5072 158.146 44.8147 157.122 44.8147C155.78 44.8147 154.729 44.3305 153.967 43.3615C153.205 42.3925 152.825 41.1182 152.825 39.5382V39.1286C152.825 37.5553 153.204 36.2838 153.962 35.3148C154.721 34.3458 155.767 33.8616 157.103 33.8616C158.192 33.8616 159.114 34.182 159.869 34.8222C160.624 35.4629 160.989 36.3646 160.963 37.5289L160.943 37.5872H160.496C160.496 36.5531 160.165 35.762 159.504 35.2121C158.843 34.6628 158.043 34.3879 157.102 34.3879C155.871 34.3879 154.937 34.83 154.302 35.7143C153.667 36.5986 153.349 37.7365 153.349 39.128V39.5376C153.349 40.942 153.667 42.085 154.302 42.9659C154.937 43.848 155.877 44.2884 157.121 44.2884Z" fill="black"/>
<path d="M157.121 45.0952C155.695 45.0952 154.56 44.5706 153.747 43.5354C152.949 42.5204 152.544 41.176 152.544 39.5381V39.1285C152.544 37.498 152.947 36.1564 153.742 35.1419C154.552 34.1062 155.683 33.5815 157.102 33.5815C158.254 33.5815 159.245 33.9272 160.049 34.6083C160.868 35.303 161.269 36.2883 161.242 37.5356C161.241 37.5636 161.236 37.5917 161.227 37.6181L161.208 37.6764C161.17 37.7909 161.063 37.8683 160.943 37.8683H160.495C160.341 37.8683 160.215 37.7426 160.215 37.5878C160.215 36.6333 159.924 35.9269 159.325 35.4287C158.719 34.9248 157.97 34.6689 157.102 34.6689C155.955 34.6689 155.113 35.0645 154.528 35.8787C153.931 36.7102 153.628 37.8032 153.628 39.1285V39.5381C153.628 40.8758 153.931 41.9744 154.528 42.802C155.113 43.6134 155.961 44.0073 157.121 44.0073C157.946 44.0073 158.682 43.7789 159.312 43.3283C159.92 42.8924 160.215 42.2493 160.215 41.3623C160.215 41.2074 160.341 41.0817 160.495 41.0817H160.943C161.063 41.0817 161.17 41.1591 161.208 41.2736L161.227 41.332C161.236 41.3583 161.241 41.3858 161.241 41.4139C161.269 42.5366 160.852 43.445 160.002 44.1139C159.174 44.7653 158.205 45.0952 157.121 45.0952Z" fill="black"/>
<path d="M171.425 44.8147C170.226 44.8147 169.19 44.3288 168.318 43.3564C167.446 42.3846 167.01 41.1766 167.01 39.7329V39.1089C167.01 37.594 167.432 36.3405 168.275 35.349C169.117 34.3576 170.157 33.8616 171.396 33.8616C172.582 33.8616 173.549 34.2515 174.298 35.032C175.046 35.8125 175.421 36.8595 175.421 38.1725V38.9821H167.536V39.1089V39.7329C167.536 41.0071 167.909 42.085 168.654 42.9659C169.4 43.8468 170.323 44.2873 171.425 44.2873C172.21 44.2873 172.866 44.1801 173.394 43.9652C173.922 43.7503 174.375 43.4288 174.751 42.9996L175.032 43.4092C174.617 43.871 174.114 44.2205 173.521 44.4579C172.927 44.6963 172.229 44.8147 171.425 44.8147ZM171.396 34.3884C170.352 34.3884 169.483 34.7705 168.79 35.5342C168.096 36.2984 167.704 37.2523 167.613 38.3969L167.643 38.4553H174.896V38.1332C174.896 37.0604 174.572 36.1677 173.924 35.4562C173.275 34.7447 172.433 34.3884 171.396 34.3884Z" fill="black"/>
<path d="M171.425 45.0952C170.148 45.0952 169.033 44.5734 168.11 43.5444C167.195 42.5237 166.731 41.2416 166.731 39.7334V39.1095C166.731 37.5328 167.178 36.2063 168.061 35.1672C168.956 34.1151 170.077 33.5815 171.395 33.5815C172.655 33.5815 173.699 34.004 174.499 34.8378C175.296 35.6688 175.7 36.791 175.7 38.173V38.9827C175.7 39.1375 175.574 39.2632 175.42 39.2632H167.815V39.734C167.815 40.9341 168.169 41.9609 168.866 42.7858C169.562 43.6083 170.399 44.0084 171.424 44.0084C172.169 44.0084 172.796 43.9068 173.288 43.7071C173.773 43.5101 174.194 43.2105 174.539 42.8161C174.596 42.751 174.679 42.7162 174.766 42.7212C174.852 42.7263 174.931 42.7706 174.979 42.8419L175.261 43.2515C175.335 43.3586 175.325 43.5023 175.239 43.5988C174.797 44.0909 174.253 44.4679 173.623 44.7199C173 44.969 172.26 45.0952 171.425 45.0952ZM167.366 38.0709C167.328 38.3183 167.304 38.5747 167.295 38.839C167.339 38.7638 167.418 38.7111 167.51 38.7027C167.46 38.6757 167.418 38.6336 167.392 38.5809L167.363 38.5226C167.34 38.4771 167.33 38.426 167.334 38.375C167.343 38.2723 167.353 38.1707 167.366 38.0709ZM175.03 38.7015H175.141V38.5904C175.115 38.637 175.077 38.6757 175.03 38.7015ZM167.916 38.1752H174.616V38.1337C174.616 37.1243 174.321 36.3101 173.716 35.6458C173.118 34.9888 172.359 34.6689 171.395 34.6689C170.425 34.6689 169.64 35.014 168.996 35.7232C168.398 36.382 168.036 37.2062 167.916 38.1752ZM173.935 35.0684C174.001 35.1319 174.067 35.1981 174.13 35.2676C174.31 35.4651 174.467 35.6761 174.601 35.9006C174.46 35.6554 174.292 35.4304 174.097 35.2272C174.043 35.1717 173.99 35.1189 173.935 35.0684Z" fill="black"/>
</g>
<defs>
<clipPath id="clip0_158_974">
<rect width="174.908" height="53" fill="white" transform="translate(0.792236)"/>
</clipPath>
</defs>
</svg>
