<svg width="15" height="15" viewBox="0 0 15 15" fill="none" xmlns="http://www.w3.org/2000/svg">
<path d="M3.35767 15H0.247774V4.98527H3.35767V15ZM1.80105 3.61917C0.806604 3.61917 0 2.79549 0 1.80104C7.1178e-09 1.32338 0.189753 0.865275 0.527514 0.527514C0.865276 0.189752 1.32338 0 1.80105 0C2.27871 0 2.73682 0.189752 3.07458 0.527514C3.41234 0.865275 3.60209 1.32338 3.60209 1.80104C3.60209 2.79549 2.79515 3.61917 1.80105 3.61917ZM14.997 15H11.8938V10.1249C11.8938 8.96303 11.8704 7.47305 10.2769 7.47305C8.66002 7.47305 8.41225 8.73535 8.41225 10.0412V15H5.30571V4.98527H8.28836V6.35137H8.33189C8.74708 5.56452 9.76128 4.73415 11.2744 4.73415C14.4218 4.73415 15.0004 6.80674 15.0004 9.49876V15H14.997Z" fill="black"/>
</svg>
