<svg width="17" height="17" viewBox="0 0 17 17" fill="none" xmlns="http://www.w3.org/2000/svg">
<path fill-rule="evenodd" clip-rule="evenodd" d="M9.82446 1.32858C9.82446 0.776296 9.37675 0.328581 8.82446 0.328581C8.27218 0.328581 7.82446 0.776297 7.82446 1.32858L7.82446 7.46017L1.95557 7.46017C1.40328 7.46017 0.955567 7.90789 0.955567 8.46017C0.955567 9.01246 1.40328 9.46017 1.95557 9.46017L7.82446 9.46017L7.82446 15.3286C7.82446 15.8809 8.27218 16.3286 8.82446 16.3286C9.37675 16.3286 9.82446 15.8809 9.82446 15.3286L9.82446 9.46017L15.9556 9.46017C16.5079 9.46017 16.9556 9.01246 16.9556 8.46017C16.9556 7.90789 16.5079 7.46017 15.9556 7.46017L9.82446 7.46017L9.82446 1.32858Z" fill="white"/>
</svg>
