<svg width="19" height="30" viewBox="0 0 19 30" fill="none" xmlns="http://www.w3.org/2000/svg">
<path d="M9.5 30C4.275 30 0 25.875 0 20.8333V9.16667C0 4.125 4.275 0 9.5 0C14.725 0 19 4.125 19 9.16667V20.8333C19 25.875 14.725 30 9.5 30ZM9.5 1.66667C5.225 1.66667 1.72727 5.04167 1.72727 9.16667V20.8333C1.72727 24.9583 5.225 28.3333 9.5 28.3333C13.775 28.3333 17.2727 24.9583 17.2727 20.8333V9.16667C17.2727 5.04167 13.775 1.66667 9.5 1.66667Z" fill="white"/>
<path d="M9.49999 10.4167C9.02499 10.4167 8.63635 10.0417 8.63635 9.58341V6.25008C8.63635 5.79175 9.02499 5.41675 9.49999 5.41675C9.97499 5.41675 10.3636 5.79175 10.3636 6.25008V9.58341C10.3636 10.0417 9.97499 10.4167 9.49999 10.4167Z" fill="white"/>
</svg>
