<svg width="11" height="14" viewBox="0 0 11 14" fill="none" xmlns="http://www.w3.org/2000/svg">
<path d="M5.72221 0C2.84428 0 0 1.91862 0 5.02377C0 6.99849 1.11078 8.12049 1.78398 8.12049C2.06168 8.12049 2.22157 7.34631 2.22157 7.12752C2.22157 6.86665 1.55678 6.31126 1.55678 5.22573C1.55678 2.9705 3.27344 1.37165 5.49501 1.37165C7.40522 1.37165 8.81894 2.45718 8.81894 4.45154C8.81894 5.941 8.22148 8.73479 6.28602 8.73479C5.58757 8.73479 4.99011 8.22989 4.99011 7.5062C4.99011 6.4459 5.73063 5.41927 5.73063 4.32532C5.73063 2.46841 3.09673 2.80501 3.09673 5.04901C3.09673 5.52025 3.15563 6.04198 3.36601 6.47115C2.97892 8.13732 2.18791 10.6198 2.18791 12.3364C2.18791 12.8666 2.26364 13.3883 2.31413 13.9184C2.4095 14.025 2.36182 14.0138 2.50768 13.9605C3.9214 12.0251 3.87091 11.6464 4.51045 9.11346C4.85547 9.76983 5.74746 10.1233 6.45432 10.1233C9.43324 10.1233 10.7712 7.22008 10.7712 4.60301C10.7712 1.81764 8.36453 0 5.72221 0Z" fill="black"/>
</svg>
