<svg width="14" height="22" viewBox="0 0 14 22" fill="none" xmlns="http://www.w3.org/2000/svg">
<path fill-rule="evenodd" clip-rule="evenodd" d="M7.00001 0.733308C6.10803 0.709538 5.22076 0.876068 4.39213 1.22277C3.56351 1.56948 2.81085 2.08912 2.17992 2.75009C1.54899 3.41106 1.05298 4.19956 0.722031 5.06764C0.391084 5.93573 0.232123 6.86525 0.254814 7.79971C0.350143 9.157 0.712903 10.4789 1.32021 11.682C2.26519 13.7089 3.43327 15.6132 4.80061 17.3558C5.24733 17.9532 5.76243 18.4908 6.33431 18.9566C6.52711 19.1096 6.75809 19.2008 6.99931 19.2192C7.24078 19.201 7.47202 19.1098 7.66501 18.9566C8.2369 18.4908 8.75199 17.9532 9.19871 17.3558C10.566 15.6131 11.7341 13.7089 12.6791 11.682C13.2863 10.4791 13.6491 9.15748 13.7445 7.80044C13.7673 6.86599 13.6084 5.93644 13.2776 5.06833C12.9467 4.20021 12.4508 3.41166 11.8199 2.75061C11.189 2.08957 10.4364 1.56985 9.60784 1.22306C8.77925 0.876262 7.892 0.709635 7.00001 0.733308ZM11.7481 11.22C10.8407 13.1654 9.71939 14.993 8.40701 16.6657C8.04998 17.136 7.65156 17.5701 7.21701 17.9622C7.14799 18.0176 7.0755 18.0681 7.00001 18.1133C6.92497 18.0676 6.85294 18.0166 6.78441 17.9608C6.34987 17.5686 5.95145 17.1345 5.59441 16.6642C4.28164 14.9921 3.15986 13.1649 2.25191 11.22C1.70982 10.162 1.38124 8.99856 1.28661 7.80191C1.26699 7.01018 1.40135 6.22255 1.6815 5.48695C1.96166 4.75134 2.38175 4.08315 2.91622 3.52302C3.45069 2.96289 4.08836 2.52255 4.79042 2.22879C5.49249 1.93502 6.24427 1.79398 7.00001 1.81424C7.7557 1.79389 8.50743 1.93481 9.20948 2.22844C9.91154 2.52207 10.5492 2.96226 11.0837 3.52224C11.6183 4.08222 12.0385 4.75028 12.3187 5.48576C12.599 6.22124 12.7335 7.00877 12.7141 7.80044C12.6194 8.99764 12.2906 10.1616 11.7481 11.22Z" fill="white"/>
<path fill-rule="evenodd" clip-rule="evenodd" d="M7.0001 3.63367C6.30214 3.63367 5.61985 3.85046 5.03949 4.25665C4.45913 4.66284 4.00676 5.24017 3.73956 5.91567C3.47237 6.59116 3.40236 7.33449 3.53837 8.05167C3.67438 8.76884 4.01031 9.42767 4.5037 9.94486C4.99708 10.462 5.62577 10.8144 6.31027 10.9573C6.99476 11.1002 7.70434 11.0273 8.34929 10.7478C8.99424 10.4683 9.5456 9.99469 9.93367 9.38694C10.3217 8.77918 10.5291 8.06453 10.5295 7.33333C10.5297 6.35244 10.158 5.41164 9.4961 4.71784C8.83423 4.02404 7.93641 3.63406 7.0001 3.63367ZM7.0001 9.94693C6.50601 9.94693 6.02301 9.7934 5.61222 9.50576C5.20143 9.21813 4.88131 8.80931 4.69236 8.33103C4.5034 7.85275 4.4541 7.3265 4.5507 6.81886C4.6473 6.31122 4.88545 5.84501 5.23503 5.47919C5.5846 5.11338 6.02989 4.86441 6.51456 4.76379C6.99924 4.66316 7.50151 4.71539 7.95784 4.91388C8.41416 5.11237 8.80404 5.44819 9.07814 5.87887C9.35225 6.30954 9.49826 6.81571 9.4977 7.33333C9.49678 8.02678 9.23327 8.69152 8.76502 9.18165C8.29677 9.67179 7.66203 9.94728 7.0001 9.94767V9.94693Z" fill="white"/>
<path fill-rule="evenodd" clip-rule="evenodd" d="M11.1944 16.1809C11.138 16.1417 11.0747 16.1144 11.0082 16.1007C10.9417 16.087 10.8733 16.0872 10.8068 16.1013C10.7404 16.1153 10.6773 16.1429 10.621 16.1825C10.5648 16.2221 10.5165 16.2729 10.479 16.332C10.4415 16.3911 10.4155 16.4574 10.4024 16.5271C10.3894 16.5968 10.3896 16.6684 10.4029 16.738C10.4163 16.8076 10.4427 16.8738 10.4805 16.9327C10.5183 16.9916 10.5668 17.0422 10.6232 17.0815C10.8233 17.1843 10.9962 17.3372 11.1266 17.5266C11.257 17.716 11.3409 17.9361 11.3708 18.1675C11.3425 18.3927 11.2623 18.6073 11.1372 18.7928C11.0121 18.9783 10.8458 19.1292 10.6526 19.2323C9.54624 19.9071 8.27927 20.2378 7.00001 20.1857C5.72076 20.2378 4.45379 19.9071 3.34741 19.2323C3.15426 19.1292 2.98796 18.9783 2.86284 18.7928C2.73772 18.6073 2.65754 18.3927 2.62921 18.1675C2.65917 17.9361 2.74304 17.716 2.87342 17.5266C3.0038 17.3372 3.17669 17.1843 3.37681 17.0815C3.43426 17.0426 3.48375 16.9921 3.52242 16.933C3.56108 16.8739 3.58814 16.8074 3.60202 16.7372C3.61591 16.6671 3.61634 16.5947 3.60329 16.5244C3.59024 16.454 3.56397 16.3871 3.52601 16.3275C3.48805 16.2679 3.43916 16.2168 3.38218 16.1772C3.3252 16.1376 3.26127 16.1102 3.1941 16.0967C3.12694 16.0832 3.05788 16.0838 2.99094 16.0985C2.92401 16.1133 2.86054 16.1418 2.80421 16.1824C2.46088 16.3815 2.17058 16.6674 1.95978 17.0142C1.74899 17.3609 1.62441 17.7574 1.59741 18.1675C1.6228 18.5696 1.74286 18.9587 1.94685 19.3003C2.15084 19.6418 2.43241 19.9251 2.76641 20.1248C4.04454 20.9212 5.51368 21.3175 7.00001 21.2666C8.48642 21.3173 9.95557 20.9208 11.2336 20.1241C11.5676 19.9244 11.8492 19.6411 12.0532 19.2995C12.2572 18.958 12.3772 18.5688 12.4026 18.1668C12.3756 17.7564 12.2508 17.3597 12.0398 17.0128C11.8287 16.6659 11.5381 16.3799 11.1944 16.1809Z" fill="white"/>
</svg>
