<svg width="20" height="20" viewBox="0 0 20 20" fill="none" xmlns="http://www.w3.org/2000/svg">
<path d="M11.1653 0.977295C6.83301 0.977295 3.3082 4.50211 3.3082 8.83444C3.3082 10.7292 4.01045 12.4465 5.13075 13.8044L0.144287 18.7908L1.20745 19.854L6.19391 14.8675C7.55331 15.9893 9.2706 16.6916 11.1653 16.6916C15.4977 16.6916 19.0225 13.1668 19.0225 8.83444C19.0225 4.50211 15.4977 0.977295 11.1653 0.977295ZM11.1653 15.1878C7.66308 15.1878 4.81196 12.3367 4.81196 8.83444C4.81196 5.33218 7.66308 2.48105 11.1653 2.48105C14.6676 2.48105 17.5187 5.33218 17.5187 8.83444C17.5187 12.3367 14.6676 15.1878 11.1653 15.1878Z" fill="white"/>
</svg>
