<svg width="300" height="90" viewBox="0 0 300 90" fill="none" xmlns="http://www.w3.org/2000/svg">
<g clip-path="url(#clip0_173_3341)">
<path d="M73.3202 89.9988C72.8655 89.9988 72.359 89.9263 71.8006 89.7501C71.7776 89.7425 71.7546 89.7348 71.7325 89.7263C71.6078 89.6786 59.0823 84.8422 46.7285 77.012C46.2248 76.6928 45.7279 76.3727 45.2376 76.0516C44.7359 76.3765 44.2255 76.7014 43.7094 77.0254C31.2078 84.8593 18.5336 89.6996 18.407 89.7482C18.384 89.7567 18.3609 89.7653 18.337 89.772C17.0668 90.1655 15.8081 89.974 14.7931 89.2327C13.7541 88.4743 13.1343 87.2471 13.1343 85.9512V46.1707H3.81405C2.23398 46.1707 0.928276 45.3027 0.321956 43.8478C-0.323698 42.2985 0.0197552 40.4853 1.17771 39.3353C11.726 28.8602 38.949 4.7037 39.9333 3.83093L39.941 3.82331C42.4919 1.2898 43.7727 0.017811 45.4429 -0.00124513C47.1679 -0.021254 48.5254 1.32601 50.989 3.77186C51.9407 4.62081 78.6054 28.4142 89.4088 39.1428C90.6838 40.4091 91.0599 42.087 90.4152 43.6315C89.782 45.1503 88.2864 46.1707 86.6938 46.1707H77.221L77.3688 85.9789C77.3688 86.9498 76.82 88.3885 75.616 89.2632C75.1027 89.6348 74.34 89.9988 73.3202 89.9988ZM72.5623 87.491C73.2387 87.6977 73.775 87.6482 74.199 87.3404C74.7363 86.9507 74.9684 86.2523 74.9684 85.9827L74.8169 44.9835C74.8159 44.6672 74.9416 44.3632 75.167 44.1384C75.3925 43.9145 75.6976 43.7877 76.0161 43.7877H86.6929C87.3174 43.7877 87.9362 43.3485 88.1991 42.7196C88.3545 42.3471 88.4974 41.6068 87.7127 40.8264C76.8133 30.0026 49.6354 5.76703 49.3629 5.52311C49.3466 5.50882 49.3313 5.49358 49.3159 5.47929C47.6418 3.81664 46.196 2.38077 45.4765 2.38077C45.4746 2.38077 45.4727 2.38077 45.4708 2.38077C44.7771 2.38839 43.4599 3.69659 41.6371 5.50692L41.6055 5.53836C41.5892 5.55456 41.5728 5.5698 41.5556 5.58505C41.2764 5.83278 13.5142 30.4513 2.87291 41.0198C2.32128 41.5677 2.31264 42.3967 2.53714 42.9359C2.69927 43.3247 3.05232 43.7877 3.81309 43.7877H14.3326C14.9945 43.7877 15.5318 44.3213 15.5318 44.9787V85.9512C15.5318 86.4848 15.7927 87.007 16.2129 87.3138C16.5957 87.5929 17.0706 87.6606 17.5877 87.5091C18.3485 87.2166 30.4893 82.4983 42.4593 74.9921C42.6665 74.8625 42.8718 74.732 43.0762 74.6024C37.4696 70.7454 32.8896 66.8151 29.4272 62.8848C24.1008 56.8402 21.3945 50.7575 21.3839 44.8053C21.3839 44.8025 21.3839 44.7996 21.3839 44.7968V44.7691C21.3839 44.7663 21.3839 44.7634 21.3839 44.7606C21.3925 38.9866 23.5089 33.2564 27.1938 29.0326C30.2494 25.5301 35.8694 21.354 45.2866 21.354C54.6932 21.354 60.3458 25.5272 63.432 29.0279C67.1131 33.204 69.2525 38.8255 69.3264 44.4938C69.3475 44.5824 69.359 44.6748 69.359 44.7691C69.359 50.7356 66.62 56.8335 61.2169 62.8934C57.7132 66.8237 53.0785 70.7559 47.4068 74.6138C47.6101 74.7444 47.8135 74.8739 48.0188 75.0045C59.8555 82.5059 71.8313 87.207 72.5623 87.491ZM23.7823 44.7815C23.7862 50.1477 26.293 55.7102 31.2328 61.3165C34.7297 65.2849 39.4344 69.2715 45.2453 73.1913C51.1301 69.2657 55.8933 65.2744 59.4324 61.3012C64.3396 55.7931 66.8704 50.3278 66.9587 45.0521C66.9404 44.9692 66.9308 44.8835 66.9308 44.7958C66.9308 39.5945 64.9977 34.4188 61.6284 30.5962C57.672 26.1075 52.0213 23.735 45.2875 23.735C38.5499 23.735 32.9203 26.1056 29.007 30.5914C25.6905 34.395 23.7862 39.5649 23.7823 44.7815Z" fill="#E5583B"/>
<path d="M133.96 34.0732C133.96 32.9947 133.529 32.1114 132.666 31.4235C131.804 30.7356 130.279 30.1191 128.094 29.5741C124.976 28.8119 122.577 27.8038 120.896 26.547C119.215 25.2912 118.376 23.6448 118.376 21.6087C118.376 19.5134 119.305 17.787 121.164 16.4292C123.024 15.0715 125.423 14.3931 128.363 14.3931C131.43 14.3931 133.893 15.1639 135.753 16.7055C137.612 18.2481 138.51 20.0956 138.446 22.2508L138.407 22.3576H133.94C133.94 21.0246 133.455 19.9441 132.483 19.1161C131.512 18.2891 130.125 17.8746 128.323 17.8746C126.623 17.8746 125.317 18.2195 124.403 18.9084C123.489 19.5973 123.032 20.4882 123.032 21.581C123.032 22.5672 123.527 23.3875 124.518 24.0402C125.508 24.6938 127.148 25.3113 129.435 25.8934C132.438 26.6433 134.719 27.679 136.278 29.0015C137.837 30.323 138.617 32.0076 138.617 34.0561C138.617 36.2228 137.688 37.9464 135.828 39.226C133.969 40.5056 131.525 41.1459 128.496 41.1459C125.582 41.1459 123.026 40.4227 120.829 38.9754C118.631 37.5291 117.563 35.5558 117.627 33.0547L117.666 32.948H122.152C122.152 34.5315 122.739 35.713 123.915 36.4934C125.09 37.2737 126.617 37.6634 128.496 37.6634C130.221 37.6634 131.563 37.3404 132.521 36.6944C133.481 36.0494 133.96 35.1756 133.96 34.0732Z" fill="white"/>
<path d="M148.049 36.6104H143.41V40.7722H148.049V36.6104Z" fill="white"/>
<path d="M159.416 14.7681H154.759V40.772H159.416V14.7681Z" fill="white"/>
<path d="M170.305 36.6104H165.667V40.7722H170.305V36.6104Z" fill="white"/>
<path d="M191.871 34.0732C191.871 32.9947 191.439 32.1114 190.576 31.4235C189.714 30.7356 188.19 30.1191 186.004 29.5741C182.886 28.8119 180.487 27.8038 178.806 26.547C177.125 25.2912 176.285 23.6448 176.285 21.6087C176.285 19.5134 177.214 17.787 179.074 16.4292C180.933 15.0715 183.332 14.3931 186.272 14.3931C189.339 14.3931 191.802 15.1639 193.662 16.7055C195.521 18.2481 196.419 20.0956 196.355 22.2508L196.316 22.3576H191.849C191.849 21.0246 191.364 19.9441 190.392 19.1161C189.421 18.2891 188.034 17.8746 186.232 17.8746C184.532 17.8746 183.226 18.2195 182.312 18.9084C181.398 19.5973 180.941 20.4882 180.941 21.581C180.941 22.5672 181.437 23.3875 182.427 24.0402C183.417 24.6938 185.056 25.3113 187.343 25.8934C190.346 26.6433 192.628 27.679 194.187 29.0015C195.745 30.323 196.525 32.0076 196.525 34.0561C196.525 36.2228 195.596 37.9464 193.737 39.226C191.877 40.5056 189.433 41.1459 186.404 41.1459C183.491 41.1459 180.935 40.4227 178.737 38.9754C176.539 37.5291 175.471 35.5558 175.535 33.0547L175.574 32.948H180.06C180.06 34.5315 180.647 35.713 181.823 36.4934C182.998 37.2737 184.526 37.6634 186.404 37.6634C188.129 37.6634 189.471 37.3404 190.43 36.6944C191.391 36.0494 191.871 35.1756 191.871 34.0732Z" fill="white"/>
<path d="M206.14 36.6104H201.502V40.7722H206.14V36.6104Z" fill="white"/>
<path d="M227.156 18.2506H218.721V40.772H214.063V18.2506H205.629V14.7681H227.156V18.2506Z" fill="white"/>
<path d="M229.899 36.6104H225.26V40.7722H229.899V36.6104Z" fill="white"/>
<path d="M254.184 29.0735H241.974V37.2895H256.14V40.772H237.316V14.7681H256.005V18.2506H241.974V25.591H254.184V29.0735Z" fill="white"/>
<path d="M265.474 36.6104H260.836V40.7722H265.474V36.6104Z" fill="white"/>
<path d="M277.073 14.7681L285.105 34.7712H285.22L293.271 14.7681H299.309V40.772H294.652V31.9138L295.111 20.644L294.996 20.6259L286.715 40.772H283.591L275.348 20.6793L275.233 20.6974L275.693 31.9138V40.772H271.035V14.7681H277.073Z" fill="white"/>
<path d="M118.388 65.4014V75.7527H117.487V51.6382H125.075C127.587 51.6382 129.521 52.2651 130.878 53.5181C132.234 54.771 132.913 56.4355 132.913 58.5117C132.913 60.6098 132.237 62.2829 130.887 63.5301C129.536 64.7783 127.599 65.4014 125.075 65.4014H118.388ZM118.388 64.5068H125.076C127.377 64.5068 129.109 63.9379 130.271 62.8012C131.432 61.6645 132.014 60.2449 132.014 58.5451C132.014 56.8005 131.435 55.3627 130.279 54.2308C129.123 53.0988 127.389 52.5329 125.077 52.5329H118.389V64.5068H118.388Z" fill="white"/>
<path d="M118.388 76.229H117.487C117.222 76.229 117.007 76.0155 117.007 75.7525V51.638C117.007 51.375 117.222 51.1616 117.487 51.1616H125.075C127.7 51.1616 129.763 51.8372 131.205 53.1692C132.657 54.5107 133.392 56.3077 133.392 58.5116C133.392 60.7373 132.659 62.5429 131.213 63.8787C129.776 65.205 127.711 65.8777 125.075 65.8777H118.867V75.7525C118.868 76.0155 118.653 76.229 118.388 76.229ZM117.967 64.7362V65.1726C118.022 65.0726 118.113 64.9944 118.222 64.9544C118.113 64.9144 118.022 64.8363 117.967 64.7362ZM118.868 64.0302H125.076C127.236 64.0302 128.87 63.5023 129.934 62.4619C131.01 61.4081 131.533 60.1266 131.533 58.5449C131.533 56.9185 131.012 55.6179 129.942 54.5698C129.42 54.0591 128.753 53.6684 127.96 53.4102C127.146 53.1444 126.175 53.0091 125.075 53.0091H118.867V64.0302H118.868ZM131.707 61.713C131.435 62.198 131.094 62.6496 130.683 63.0641C131.099 62.6572 131.44 62.2084 131.707 61.713ZM117.967 52.1144V52.3031C118.011 52.224 118.077 52.1573 118.157 52.1144H117.967Z" fill="white"/>
<path d="M152.659 58.4781L151.492 58.379C149.88 58.379 148.571 58.8954 147.564 59.9273C146.558 60.9601 145.905 62.3207 145.604 64.0101V75.7524H144.703V57.8321H145.437L145.604 60.9458V61.5585C146.105 60.2779 146.849 59.2813 147.839 58.5686C148.828 57.8568 150.045 57.5005 151.491 57.5005C151.746 57.5005 151.983 57.5195 152.2 57.5586C152.417 57.5977 152.603 57.6386 152.758 57.6825L152.659 58.4781Z" fill="white"/>
<path d="M145.605 76.2286H144.704C144.44 76.2286 144.225 76.0152 144.225 75.7522V57.8319C144.225 57.5689 144.44 57.3555 144.704 57.3555H145.438C145.693 57.3555 145.904 57.5537 145.917 57.8062L146.022 59.7509C146.452 59.1334 146.966 58.6084 147.558 58.1825C148.626 57.4136 149.95 57.0239 151.492 57.0239C151.774 57.0239 152.042 57.0458 152.285 57.0897C152.516 57.1306 152.72 57.1764 152.891 57.225C153.118 57.2898 153.265 57.5089 153.235 57.7423L153.135 58.537C153.104 58.7904 152.875 58.9753 152.618 58.9524L151.472 58.8552C149.991 58.859 148.826 59.3183 147.91 60.2587C146.984 61.2086 146.37 62.4844 146.085 64.0518V75.7522C146.085 76.0152 145.87 76.2286 145.605 76.2286ZM145.184 61.787V63.6564C145.302 63.079 145.461 62.5369 145.663 62.0309C145.615 62.0366 145.566 62.0357 145.516 62.0261C145.371 61.9995 145.251 61.909 145.184 61.787Z" fill="white"/>
<path d="M161.466 66.445C161.466 63.8171 162.197 61.6695 163.659 60.0021C165.121 58.3347 167.019 57.501 169.353 57.501C171.699 57.501 173.604 58.3347 175.066 60.0021C176.528 61.6695 177.259 63.8171 177.259 66.445V67.1405C177.259 69.7798 176.528 71.9331 175.066 73.5996C173.604 75.267 171.711 76.1007 169.387 76.1007C167.041 76.1007 165.134 75.267 163.667 73.5996C162.199 71.9322 161.466 69.7798 161.466 67.1405V66.445ZM162.366 67.1405C162.366 69.3929 163.001 71.3004 164.268 72.863C165.535 74.4256 167.242 75.207 169.388 75.207C171.501 75.207 173.19 74.4228 174.457 72.8554C175.725 71.2881 176.359 69.3834 176.359 67.1415V66.4459C176.359 64.2487 175.72 62.3574 174.441 60.7729C173.162 59.1884 171.467 58.3966 169.354 58.3966C167.231 58.3966 165.535 59.1893 164.268 60.7729C163.001 62.3574 162.366 64.2487 162.366 66.4459V67.1405Z" fill="white"/>
<path d="M169.387 76.5769C166.908 76.5769 164.862 75.6803 163.306 73.9129C161.767 72.1645 160.986 69.8854 160.986 67.1404V66.4448C160.986 63.7112 161.763 61.4378 163.297 59.6894C164.847 57.921 166.885 57.0254 169.353 57.0254C171.833 57.0254 173.877 57.922 175.427 59.6894C176.96 61.4388 177.738 63.7112 177.738 66.4448V67.1404C177.738 69.8854 176.961 72.1635 175.427 73.9129C173.877 75.6813 171.845 76.5769 169.387 76.5769ZM169.353 58.8719C167.366 58.8719 165.825 59.5903 164.643 61.0681C163.45 62.5593 162.846 64.3677 162.846 66.4448V67.1404C162.846 69.2708 163.449 71.0955 164.641 72.5637C165.823 74.0215 167.376 74.7294 169.387 74.7294C171.364 74.7294 172.9 74.0187 174.082 72.5561C175.274 71.0821 175.878 69.2603 175.878 67.1404V66.4448C175.878 64.3687 175.268 62.5602 174.066 61.07C172.871 59.5913 171.331 58.8719 169.353 58.8719ZM173.909 59.5332C174.231 59.8114 174.533 60.1249 174.814 60.4745C175.395 61.1949 175.852 61.979 176.183 62.8232C175.839 61.8847 175.345 61.0462 174.703 60.3145C174.451 60.0277 174.187 59.7666 173.909 59.5332ZM164.121 60.202C164.087 60.2392 164.054 60.2773 164.02 60.3154C163.436 60.9814 162.975 61.7361 162.636 62.5745C162.954 61.8247 163.373 61.1244 163.892 60.4764C163.967 60.3821 164.043 60.2907 164.121 60.202Z" fill="white"/>
<path d="M192.886 71.9607L193.736 74.3789H193.836L194.703 71.9607L200.257 57.8325H201.224L194.203 75.7367L194.219 75.7529H193.353L186.349 57.8325H187.316L192.886 71.9607Z" fill="white"/>
<path d="M194.219 76.2291H193.352C193.154 76.2291 192.976 76.1081 192.905 75.9251L185.901 58.0048C185.843 57.8581 185.862 57.6933 185.952 57.5637C186.043 57.4341 186.19 57.356 186.349 57.356H187.316C187.513 57.356 187.691 57.476 187.763 57.659L193.333 71.7871C193.335 71.7928 193.337 71.7985 193.339 71.8033L193.79 73.0867L194.252 71.8005C194.254 71.7957 194.255 71.7919 194.257 71.7871L199.81 57.659C199.882 57.476 200.06 57.356 200.258 57.356H201.225C201.383 57.356 201.532 57.4341 201.621 57.5637C201.71 57.6933 201.729 57.859 201.672 58.0058L194.699 75.787C194.695 75.8375 194.684 75.888 194.663 75.9366C194.588 76.1138 194.413 76.2291 194.219 76.2291ZM193.681 75.2763H193.869L194.055 74.8027C193.989 74.8361 193.915 74.8551 193.837 74.8551H193.738C193.648 74.8551 193.564 74.8304 193.491 74.7875L193.681 75.2763Z" fill="white"/>
<path d="M217.918 76.1007C215.862 76.1007 214.086 75.2756 212.59 73.6243C211.095 71.9741 210.347 69.9227 210.347 67.4711V66.4116C210.347 63.839 211.07 61.7105 212.515 60.0269C213.96 58.3433 215.745 57.501 217.869 57.501C219.903 57.501 221.562 58.1632 222.847 59.4885C224.13 60.8139 224.773 62.5918 224.773 64.8214V66.1963H211.249V66.4116V67.4711C211.249 69.6349 211.888 71.4653 213.167 72.9612C214.446 74.4571 216.03 75.205 217.919 75.205C219.264 75.205 220.39 75.0231 221.296 74.6581C222.202 74.2932 222.978 73.7472 223.623 73.0184L224.106 73.7139C223.395 74.4981 222.53 75.0917 221.513 75.4947C220.494 75.8996 219.297 76.1007 217.918 76.1007ZM217.869 58.3957C216.078 58.3957 214.589 59.0445 213.399 60.3413C212.209 61.639 211.537 63.2588 211.381 65.2025L211.431 65.3016H223.872V64.7547C223.872 62.9329 223.316 61.417 222.205 60.2088C221.092 59.0007 219.647 58.3957 217.869 58.3957Z" fill="white"/>
<path d="M217.918 76.5769C215.729 76.5769 213.816 75.6908 212.234 73.9434C210.665 72.2102 209.868 70.0331 209.868 67.4719V66.4124C209.868 63.735 210.636 61.4836 212.151 59.719C213.685 57.9315 215.608 57.0254 217.869 57.0254C220.029 57.0254 221.82 57.7429 223.192 59.1587C224.559 60.5698 225.252 62.4745 225.252 64.8222V66.1971C225.252 66.4601 225.037 66.6735 224.772 66.6735H211.728V67.4729C211.728 69.5109 212.335 71.2546 213.531 72.6552C214.725 74.052 216.16 74.7314 217.918 74.7314C219.195 74.7314 220.271 74.5589 221.116 74.2197C221.948 73.8853 222.67 73.3755 223.262 72.7066C223.36 72.5961 223.502 72.537 223.651 72.5456C223.798 72.5542 223.934 72.6295 224.017 72.7505L224.501 73.446C224.627 73.628 224.611 73.8719 224.462 74.0358C223.704 74.8705 222.772 75.5117 221.691 75.9395C220.62 76.3626 219.351 76.5769 217.918 76.5769ZM210.957 64.6488C210.892 65.069 210.852 65.5044 210.835 65.9532C210.912 65.8255 211.047 65.7359 211.205 65.7216C211.119 65.6759 211.047 65.6044 211.002 65.5149L210.953 65.4158C210.913 65.3386 210.897 65.2519 210.904 65.1652C210.917 64.9908 210.935 64.8184 210.957 64.6488ZM224.103 65.7197H224.293V65.5311C224.248 65.6102 224.182 65.6759 224.103 65.7197ZM211.901 64.826H223.392V64.7555C223.392 63.0414 222.887 61.6589 221.849 60.5308C220.823 59.415 219.521 58.8719 217.868 58.8719C216.203 58.8719 214.858 59.4579 213.753 60.6622C212.728 61.7808 212.106 63.1796 211.901 64.826ZM222.222 59.5484C222.337 59.6561 222.45 59.7695 222.559 59.8886C222.868 60.224 223.137 60.5832 223.366 60.9643C223.124 60.547 222.836 60.1658 222.5 59.82C222.409 59.7256 222.316 59.6351 222.222 59.5484Z" fill="white"/>
<path d="M236.914 57.8321L237.031 61.5251C237.576 60.2446 238.37 59.2537 239.416 58.5524C240.461 57.8511 241.751 57.5005 243.285 57.5005C245.253 57.5005 246.729 58.116 247.713 59.347C248.697 60.578 249.188 62.5294 249.188 65.202V75.7524H248.287V65.1696C248.287 62.6847 247.839 60.9353 246.945 59.9197C246.05 58.904 244.835 58.3961 243.301 58.3961C241.356 58.3961 239.888 58.9735 238.899 60.1274C237.909 61.2812 237.292 62.7581 237.048 64.5579V75.7543H236.147V57.8321H236.914Z" fill="white"/>
<path d="M249.188 76.2286H248.287C248.022 76.2286 247.808 76.0152 247.808 75.7522V65.1694C247.808 62.816 247.396 61.1543 246.583 60.233C245.777 59.3173 244.702 58.8724 243.3 58.8724C241.485 58.8724 240.165 59.384 239.263 60.4359C238.344 61.5069 237.76 62.9046 237.527 64.5901V75.7542C237.527 76.0171 237.312 76.2306 237.047 76.2306H236.146C235.882 76.2306 235.667 76.0171 235.667 75.7542V57.8319C235.667 57.5689 235.882 57.3555 236.146 57.3555H236.914C237.173 57.3555 237.385 57.5594 237.394 57.8167L237.456 59.7937C237.929 59.143 238.494 58.5961 239.147 58.1578C240.268 57.406 241.66 57.0239 243.285 57.0239C245.398 57.0239 247.013 57.7061 248.089 59.0505C249.137 60.3626 249.669 62.432 249.669 65.2018V75.7522C249.668 76.0152 249.453 76.2286 249.188 76.2286ZM236.627 61.7822V64.1318C236.758 63.3486 236.961 62.6226 237.236 61.9556C237.148 61.9976 237.045 62.0119 236.944 61.9928C236.808 61.969 236.696 61.8899 236.627 61.7822ZM245.771 58.4369C246.348 58.7132 246.857 59.0991 247.295 59.5936C246.881 59.0887 246.374 58.7037 245.771 58.4369Z" fill="white"/>
<path d="M268.134 75.207C269.657 75.207 271.002 74.7925 272.17 73.9645C273.337 73.1365 273.921 71.894 273.921 70.2381H274.688L274.722 70.3372C274.766 72.0922 274.118 73.4919 272.779 74.5352C271.44 75.5785 269.891 76.1007 268.135 76.1007C265.833 76.1007 264.029 75.2784 262.723 73.6329C261.416 71.9874 260.764 69.8236 260.764 67.1405V66.445C260.764 63.7733 261.414 61.6142 262.715 59.9687C264.016 58.3232 265.811 57.501 268.102 57.501C269.97 57.501 271.551 58.045 272.846 59.1322C274.141 60.2203 274.767 61.7514 274.723 63.7285L274.689 63.8276H273.921C273.921 62.0716 273.354 60.7281 272.22 59.7944C271.087 58.8616 269.714 58.3947 268.101 58.3947C265.988 58.3947 264.387 59.1455 263.298 60.6471C262.208 62.1488 261.664 64.081 261.664 66.444V67.1396C261.664 69.5244 262.208 71.4653 263.298 72.9612C264.387 74.459 265.999 75.207 268.134 75.207Z" fill="white"/>
<path d="M268.134 76.5769C265.688 76.5769 263.741 75.6861 262.346 73.9281C260.978 72.2045 260.283 69.9216 260.283 67.1404V66.4448C260.283 63.676 260.974 61.3978 262.337 59.6751C263.727 57.9163 265.667 57.0254 268.101 57.0254C270.076 57.0254 271.776 57.6123 273.155 58.769C274.56 59.9486 275.248 61.6217 275.201 63.7398C275.2 63.7874 275.192 63.8351 275.176 63.8799L275.143 63.979C275.078 64.1733 274.894 64.3048 274.688 64.3048H273.921C273.656 64.3048 273.441 64.0914 273.441 63.8284C273.441 62.2077 272.941 61.0081 271.914 60.162C270.874 59.3064 269.59 58.8719 268.1 58.8719C266.133 58.8719 264.69 59.5437 263.686 60.9262C262.661 62.3382 262.142 64.1943 262.142 66.4448V67.1404C262.142 69.4118 262.661 71.2774 263.686 72.6828C264.689 74.0606 266.144 74.7294 268.134 74.7294C269.548 74.7294 270.811 74.3417 271.891 73.5766C272.933 72.8362 273.441 71.7443 273.441 70.2379C273.441 69.9749 273.656 69.7615 273.921 69.7615H274.688C274.894 69.7615 275.078 69.893 275.143 70.0874L275.176 70.1865C275.192 70.2313 275.199 70.2779 275.2 70.3256C275.248 72.2321 274.533 73.7747 273.074 74.9105C271.655 76.0167 269.992 76.5769 268.134 76.5769Z" fill="white"/>
<path d="M292.667 76.1007C290.61 76.1007 288.834 75.2756 287.338 73.6243C285.843 71.9741 285.095 69.9227 285.095 67.4711V66.4116C285.095 63.839 285.818 61.7105 287.263 60.0269C288.708 58.3433 290.493 57.501 292.617 57.501C294.651 57.501 296.31 58.1632 297.595 59.4885C298.878 60.8139 299.521 62.5918 299.521 64.8214V66.1963H285.997V66.4116V67.4711C285.997 69.6349 286.636 71.4653 287.915 72.9612C289.194 74.4571 290.778 75.205 292.667 75.205C294.013 75.205 295.138 75.0231 296.044 74.6581C296.95 74.2932 297.726 73.7472 298.371 73.0184L298.854 73.7139C298.143 74.4981 297.278 75.0917 296.261 75.4947C295.242 75.8996 294.045 76.1007 292.667 76.1007ZM292.617 58.3957C290.826 58.3957 289.337 59.0445 288.147 60.3413C286.957 61.639 286.285 63.2588 286.129 65.2025L286.179 65.3016H298.62V64.7547C298.62 62.9329 298.064 61.417 296.953 60.2088C295.84 59.0007 294.395 58.3957 292.617 58.3957Z" fill="white"/>
<path d="M292.667 76.5769C290.477 76.5769 288.564 75.6908 286.982 73.9434C285.412 72.2102 284.616 70.0331 284.616 67.4719V66.4124C284.616 63.735 285.383 61.4826 286.898 59.718C288.432 57.9315 290.356 57.0254 292.616 57.0254C294.776 57.0254 296.567 57.7429 297.939 59.1587C299.306 60.5698 299.999 62.4754 299.999 64.8222V66.1971C299.999 66.4601 299.784 66.6735 299.519 66.6735H286.475V67.4729C286.475 69.5109 287.082 71.2546 288.279 72.6552C289.472 74.052 290.907 74.7313 292.666 74.7313C293.943 74.7313 295.018 74.5589 295.862 74.2197C296.694 73.8853 297.416 73.3765 298.008 72.7066C298.106 72.5961 298.248 72.537 298.397 72.5456C298.545 72.5542 298.68 72.6295 298.763 72.7505L299.247 73.446C299.373 73.628 299.357 73.8719 299.208 74.0358C298.451 74.8714 297.518 75.5117 296.437 75.9395C295.368 76.3626 294.099 76.5769 292.667 76.5769ZM285.705 64.6488C285.64 65.069 285.599 65.5044 285.583 65.9532C285.66 65.8255 285.795 65.7359 285.952 65.7216C285.867 65.6759 285.795 65.6044 285.75 65.5149L285.7 65.4158C285.66 65.3386 285.644 65.2519 285.651 65.1652C285.665 64.9908 285.683 64.8184 285.705 64.6488ZM298.851 65.7197H299.041V65.5311C298.996 65.6102 298.93 65.6759 298.851 65.7197ZM286.65 64.826H298.14V64.7555C298.14 63.0414 297.635 61.6589 296.597 60.5308C295.571 59.415 294.269 58.8719 292.616 58.8719C290.951 58.8719 289.605 59.4579 288.501 60.6622C287.476 61.7808 286.854 63.1805 286.65 64.826ZM296.972 59.5503C297.086 59.658 297.199 59.7704 297.307 59.8886C297.615 60.224 297.885 60.5822 298.114 60.9633C297.872 60.547 297.584 60.1649 297.249 59.82C297.158 59.7256 297.066 59.6361 296.972 59.5503Z" fill="white"/>
</g>
<defs>
<clipPath id="clip0_173_3341">
<rect width="300" height="90" fill="white"/>
</clipPath>
</defs>
</svg>
