<svg width="14" height="11" viewBox="0 0 14 11" fill="none" xmlns="http://www.w3.org/2000/svg">
<path d="M12.1516 2.7414C12.1602 2.8617 12.1602 2.98204 12.1602 3.10234C12.1602 6.77186 9.36721 11 4.2625 11C2.68984 11 1.22891 10.5445 0 9.75392C0.223446 9.77969 0.438268 9.78828 0.670311 9.78828C1.96795 9.78828 3.1625 9.35001 4.11641 8.60236C2.89609 8.57656 1.87343 7.77735 1.52108 6.67734C1.69297 6.70311 1.86483 6.7203 2.04532 6.7203C2.29453 6.7203 2.54377 6.68591 2.77578 6.62579C1.50391 6.36795 0.549977 5.25078 0.549977 3.90156V3.8672C0.919495 4.07345 1.34922 4.20235 1.80465 4.21952C1.057 3.72107 0.567172 2.8703 0.567172 1.90779C0.567172 1.39218 0.704646 0.919521 0.945286 0.507018C2.3117 2.19139 4.36562 3.29137 6.66872 3.41171C6.62576 3.20546 6.59997 2.99063 6.59997 2.77578C6.59997 1.24608 7.83748 0 9.37575 0C10.175 0 10.8968 0.335155 11.4039 0.876562C12.0312 0.756255 12.6328 0.524213 13.1656 0.206252C12.9593 0.850797 12.5211 1.3922 11.9453 1.73593C12.5039 1.6758 13.0453 1.52108 13.5437 1.30626C13.1657 1.85624 12.693 2.34606 12.1516 2.7414Z" fill="black"/>
</svg>
