<svg width="16" height="20" viewBox="0 0 16 20" fill="none" xmlns="http://www.w3.org/2000/svg">
<path d="M8 10.0413C5.87897 10.0436 3.84547 10.8871 2.34568 12.3869C0.845885 13.8867 0.00229408 15.9202 3.00224e-08 18.0413C-4.10292e-05 18.1781 0.0420339 18.3117 0.120512 18.4238C0.19899 18.5359 0.310069 18.6211 0.438667 18.6679C2.86223 19.5492 5.42119 19.9999 8 19.9999C10.5789 19.9995 13.1378 19.5483 15.5613 18.6666C15.6899 18.6198 15.801 18.5345 15.8795 18.4224C15.958 18.3103 16 18.1768 16 18.0399C15.9974 15.9191 15.1536 13.886 13.6538 12.3865C12.1541 10.887 10.1208 10.0436 8 10.0413ZM1.34933 17.5746C1.46623 15.8904 2.21771 14.3134 3.45208 13.1617C4.68646 12.01 6.3118 11.3695 8 11.3695C9.6882 11.3695 11.3135 12.01 12.5479 13.1617C13.7823 14.3134 14.5338 15.8904 14.6507 17.5746C10.336 19.0284 5.66383 19.0282 1.34933 17.5739V17.5746Z" fill="white"/>
<path d="M8.00002 8.66667C8.85707 8.66667 9.69488 8.41252 10.4075 7.93637C11.1201 7.46022 11.6755 6.78344 12.0035 5.99163C12.3315 5.19982 12.4173 4.32853 12.2501 3.48794C12.0829 2.64736 11.6702 1.87523 11.0641 1.26921C10.4581 0.663178 9.686 0.250468 8.84541 0.0832657C8.00483 -0.0839369 7.13354 0.00187757 6.34173 0.329857C5.54991 0.657837 4.87314 1.21325 4.39699 1.92586C3.92083 2.63848 3.66669 3.47628 3.66669 4.33333C3.6681 5.48217 4.1251 6.58355 4.93745 7.3959C5.7498 8.20826 6.85118 8.66526 8.00002 8.66667ZM8.00002 1.33334C8.59336 1.33334 9.17338 1.50928 9.66673 1.83893C10.1601 2.16857 10.5446 2.63711 10.7717 3.18528C10.9987 3.73346 11.0581 4.33666 10.9424 4.91861C10.8266 5.50055 10.5409 6.0351 10.1213 6.45465C9.70178 6.87421 9.16723 7.15993 8.58529 7.27569C8.00335 7.39145 7.40015 7.33204 6.85197 7.10497C6.30379 6.87791 5.83526 6.49339 5.50561 6.00004C5.17597 5.5067 5.00002 4.92668 5.00002 4.33333C5.0009 3.53796 5.31726 2.77541 5.87967 2.21299C6.44209 1.65057 7.20464 1.33422 8.00002 1.33334Z" fill="white"/>
</svg>
