<svg width="68" height="19" viewBox="0 0 68 19" fill="none" xmlns="http://www.w3.org/2000/svg">
<path opacity="0.4" fill-rule="evenodd" clip-rule="evenodd" d="M38.4077 5.96367C38.7333 5.96367 38.9923 6.05493 39.1847 6.23747C39.3771 6.42 39.4733 6.6642 39.4733 6.97007V9.54527C39.4733 10.0386 39.4363 10.416 39.3623 10.6775C39.2883 10.9389 39.1551 11.1437 38.9627 11.2917C38.7703 11.4397 38.4817 11.5679 38.0969 11.6765C37.7121 11.7751 37.2854 11.8516 36.8167 11.9059C36.3481 11.9601 35.9115 11.9873 35.5069 11.9873C34.3723 11.9873 33.3881 11.7727 32.5543 11.3435C31.7206 10.9143 31.0817 10.2976 30.6377 9.49347C30.1937 8.68933 29.9717 7.73474 29.9717 6.62967C29.9717 5.54433 30.1937 4.5996 30.6377 3.79547C31.0817 2.99133 31.7132 2.3722 32.5321 1.93807C33.3511 1.50393 34.3081 1.28687 35.4033 1.28687C36.094 1.28687 36.7131 1.36826 37.2607 1.53107C37.8083 1.69387 38.3189 1.943 38.7925 2.27847C38.9603 2.39687 39.0811 2.52513 39.1551 2.66327C39.2291 2.8014 39.2661 2.979 39.2661 3.19607C39.2661 3.50193 39.1823 3.76093 39.0145 3.97307C38.8468 4.1852 38.6445 4.29127 38.4077 4.29127C38.2499 4.29127 38.1142 4.26907 38.0007 4.22467C37.8873 4.18026 37.7417 4.1038 37.5641 3.99527C37.1991 3.79793 36.8562 3.65487 36.5355 3.56607C36.2149 3.47726 35.8671 3.43287 35.4921 3.43287C34.5548 3.43287 33.8567 3.69433 33.3979 4.21727C32.9391 4.7402 32.7097 5.54433 32.7097 6.62967C32.7097 7.7446 32.949 8.57093 33.4275 9.10867C33.9061 9.6464 34.6387 9.91527 35.6253 9.91527C36.0989 9.91527 36.5676 9.86593 37.0313 9.76727V7.82847H35.9657C35.6401 7.82847 35.3885 7.74707 35.2109 7.58427C35.0333 7.42146 34.9445 7.19207 34.9445 6.89607C34.9445 6.60006 35.0333 6.37067 35.2109 6.20787C35.3885 6.04506 35.6401 5.96367 35.9657 5.96367H38.4077ZM29.2871 10.7293C29.2871 10.5517 29.2427 10.3691 29.1539 10.1817L25.2467 2.16007C25.1185 1.89366 24.9261 1.68893 24.6695 1.54587C24.413 1.4028 24.1367 1.33127 23.8407 1.33127C23.5349 1.33127 23.2561 1.4028 23.0045 1.54587C22.7529 1.68893 22.563 1.89366 22.4347 2.16007L18.5275 10.1817C18.4387 10.3691 18.3943 10.5517 18.3943 10.7293C18.3943 11.0549 18.53 11.3311 18.8013 11.5581C19.0727 11.785 19.3761 11.8985 19.7115 11.8985C19.9385 11.8985 20.1481 11.8393 20.3405 11.7209C20.5329 11.6025 20.6834 11.4249 20.7919 11.1881L21.4727 9.69327H26.2679L26.9339 11.1881C27.0425 11.4249 27.1905 11.6025 27.3779 11.7209C27.5654 11.8393 27.7726 11.8985 27.9995 11.8985C28.335 11.8985 28.6335 11.785 28.8949 11.5581C29.1564 11.3311 29.2871 11.0549 29.2871 10.7293ZM25.3503 7.65087H22.3903L23.8703 4.35047L25.3503 7.65087ZM51.4651 10.7293C51.4651 10.5517 51.4207 10.3691 51.3319 10.1817L47.4247 2.16007C47.2965 1.89366 47.1041 1.68893 46.8475 1.54587C46.591 1.4028 46.3147 1.33127 46.0187 1.33127C45.7129 1.33127 45.4341 1.4028 45.1825 1.54587C44.9309 1.68893 44.741 1.89366 44.6127 2.16007L40.7055 10.1817C40.6167 10.3691 40.5723 10.5517 40.5723 10.7293C40.5723 11.0549 40.708 11.3311 40.9793 11.5581C41.2507 11.785 41.5541 11.8985 41.8895 11.8985C42.1165 11.8985 42.3261 11.8393 42.5185 11.7209C42.7109 11.6025 42.8614 11.4249 42.9699 11.1881L43.6507 9.69327H48.4459L49.1119 11.1881C49.2205 11.4249 49.3685 11.6025 49.5559 11.7209C49.7434 11.8393 49.9506 11.8985 50.1775 11.8985C50.513 11.8985 50.8115 11.785 51.0729 11.5581C51.3344 11.3311 51.4651 11.0549 51.4651 10.7293ZM44.5683 7.65087H47.5283L46.0483 4.35047L44.5683 7.65087ZM53.0599 11.5803C53.3017 11.822 53.6297 11.9429 54.0441 11.9429C54.4684 11.9429 54.8039 11.822 55.0505 11.5803C55.2972 11.3385 55.4205 11.0105 55.4205 10.5961V2.67807C55.4205 2.27353 55.2972 1.9504 55.0505 1.70867C54.8039 1.46693 54.4684 1.34607 54.0441 1.34607C53.6297 1.34607 53.3017 1.46693 53.0599 1.70867C52.8182 1.9504 52.6973 2.27353 52.6973 2.67807V10.5961C52.6973 11.0105 52.8182 11.3385 53.0599 11.5803ZM67.3975 10.1817C67.4863 10.3691 67.5307 10.5517 67.5307 10.7293C67.5307 11.0549 67.4 11.3311 67.1385 11.5581C66.8771 11.785 66.5786 11.8985 66.2431 11.8985C66.0162 11.8985 65.809 11.8393 65.6215 11.7209C65.4341 11.6025 65.2861 11.4249 65.1775 11.1881L64.5115 9.69327H59.7163L59.0355 11.1881C58.927 11.4249 58.7765 11.6025 58.5841 11.7209C58.3917 11.8393 58.1821 11.8985 57.9551 11.8985C57.6197 11.8985 57.3163 11.785 57.0449 11.5581C56.7736 11.3311 56.6379 11.0549 56.6379 10.7293C56.6379 10.5517 56.6823 10.3691 56.7711 10.1817L60.6783 2.16007C60.8066 1.89366 60.9965 1.68893 61.2481 1.54587C61.4997 1.4028 61.7785 1.33127 62.0843 1.33127C62.3803 1.33127 62.6566 1.4028 62.9131 1.54587C63.1697 1.68893 63.3621 1.89366 63.4903 2.16007L67.3975 10.1817ZM62.1139 4.35047L63.5939 7.65087H60.6339L62.1139 4.35047Z" fill="black"/>
<path opacity="0.4" fill-rule="evenodd" clip-rule="evenodd" d="M24.868 16.8536C24.9352 16.8536 24.9886 16.8722 25.0282 16.9094C25.0678 16.9466 25.0876 16.9976 25.0876 17.0624V17.7644C25.0876 17.8604 25.0798 17.9348 25.0642 17.9876C25.0486 18.0404 25.0216 18.0824 24.9832 18.1136C24.9448 18.1448 24.8872 18.1712 24.8104 18.1928C24.7168 18.2216 24.6094 18.2444 24.4882 18.2612C24.367 18.278 24.2524 18.2864 24.1444 18.2864C23.8756 18.2864 23.6428 18.2342 23.446 18.1298C23.2492 18.0254 23.098 17.8754 22.9924 17.6798C22.8868 17.4842 22.834 17.252 22.834 16.9832C22.834 16.7192 22.8862 16.4894 22.9906 16.2938C23.095 16.0982 23.2444 15.9476 23.4388 15.842C23.6332 15.7364 23.86 15.6836 24.1192 15.6836C24.4528 15.6836 24.7288 15.77 24.9472 15.9428C24.9832 15.9716 25.0084 16.0004 25.0228 16.0292C25.0372 16.058 25.0444 16.094 25.0444 16.1372C25.0444 16.1996 25.027 16.253 24.9922 16.2974C24.9574 16.3418 24.916 16.364 24.868 16.364C24.8368 16.364 24.8086 16.3592 24.7834 16.3496C24.7582 16.34 24.7276 16.3244 24.6916 16.3028C24.5908 16.2404 24.4984 16.196 24.4144 16.1696C24.3304 16.1432 24.238 16.13 24.1372 16.13C23.6476 16.13 23.4028 16.4144 23.4028 16.9832C23.4028 17.276 23.4664 17.4944 23.5936 17.6384C23.7208 17.7824 23.9128 17.8544 24.1696 17.8544C24.3088 17.8544 24.4468 17.8364 24.5836 17.8004V17.2424H24.2524C24.1828 17.2424 24.1288 17.2256 24.0904 17.192C24.052 17.1584 24.0328 17.1104 24.0328 17.048C24.0328 16.9856 24.052 16.9376 24.0904 16.904C24.1288 16.8704 24.1828 16.8536 24.2524 16.8536H24.868ZM21.8044 18.0272C21.8044 17.9936 21.7948 17.9552 21.7756 17.912L20.8036 15.8708C20.7748 15.8156 20.734 15.7724 20.6812 15.7412C20.6284 15.71 20.5708 15.6944 20.5084 15.6944C20.4484 15.6944 20.392 15.7094 20.3392 15.7394C20.2864 15.7694 20.2468 15.8132 20.2204 15.8708L19.2484 17.912C19.2292 17.9552 19.2196 17.9936 19.2196 18.0272C19.2196 18.0944 19.2472 18.1514 19.3024 18.1982C19.3576 18.245 19.42 18.2684 19.4896 18.2684C19.5376 18.2684 19.5814 18.2558 19.621 18.2306C19.6606 18.2054 19.6912 18.1676 19.7128 18.1172L19.9036 17.6924H21.124L21.3148 18.1172C21.3364 18.1676 21.3676 18.2054 21.4084 18.2306C21.4492 18.2558 21.4924 18.2684 21.538 18.2684C21.6076 18.2684 21.6694 18.245 21.7234 18.1982C21.7774 18.1514 21.8044 18.0944 21.8044 18.0272ZM20.9332 17.2676H20.0944L20.5156 16.3316L20.9332 17.2676ZM26.4952 18.1856C26.5408 18.2312 26.6056 18.254 26.6896 18.254H27.964C28.1416 18.254 28.2304 18.182 28.2304 18.038C28.2304 17.8916 28.1416 17.8184 27.964 17.8184H26.974V17.1812H27.892C28.0696 17.1812 28.1584 17.1092 28.1584 16.9652C28.1584 16.8188 28.0696 16.7456 27.892 16.7456H26.974V16.1516H27.964C28.1416 16.1516 28.2304 16.0784 28.2304 15.932C28.2304 15.788 28.1416 15.716 27.964 15.716H26.6896C26.6056 15.716 26.5408 15.7388 26.4952 15.7844C26.4496 15.83 26.4268 15.8948 26.4268 15.9788V17.9912C26.4268 18.0752 26.4496 18.14 26.4952 18.1856ZM31.3624 15.698C31.4416 15.698 31.5058 15.7238 31.555 15.7754C31.6042 15.827 31.6288 15.8936 31.6288 15.9752V17.9948C31.6288 18.0788 31.6042 18.1466 31.555 18.1982C31.5058 18.2498 31.4416 18.2756 31.3624 18.2756C31.276 18.2756 31.2064 18.2444 31.1536 18.182L29.9476 16.6376V17.9948C29.9476 18.0788 29.9242 18.1466 29.8774 18.1982C29.8306 18.2498 29.7676 18.2756 29.6884 18.2756C29.6092 18.2756 29.5456 18.2498 29.4976 18.1982C29.4496 18.1466 29.4256 18.0788 29.4256 17.9948V15.9752C29.4256 15.8936 29.4502 15.827 29.4994 15.7754C29.5486 15.7238 29.6128 15.698 29.692 15.698C29.7808 15.698 29.8492 15.7292 29.8972 15.7916L31.1032 17.3252V15.9752C31.1032 15.8936 31.1272 15.827 31.1752 15.7754C31.2232 15.7238 31.2856 15.698 31.3624 15.698ZM33.508 18.128C33.6952 18.2336 33.9136 18.2864 34.1632 18.2864C34.4776 18.2864 34.7488 18.2 34.9768 18.0272C35.0104 18.0008 35.035 17.9726 35.0506 17.9426C35.0662 17.9126 35.074 17.876 35.074 17.8328C35.074 17.7704 35.0566 17.717 35.0218 17.6726C34.987 17.6282 34.9444 17.606 34.894 17.606C34.8628 17.606 34.8352 17.6102 34.8112 17.6186C34.7872 17.627 34.7572 17.642 34.7212 17.6636C34.6156 17.726 34.5232 17.771 34.444 17.7986C34.3648 17.8262 34.2808 17.84 34.192 17.84C33.7288 17.84 33.4972 17.5544 33.4972 16.9832C33.4972 16.7 33.5554 16.487 33.6718 16.3442C33.7882 16.2014 33.9616 16.13 34.192 16.13C34.2856 16.13 34.3732 16.1438 34.4548 16.1714C34.5364 16.199 34.6252 16.244 34.7212 16.3064C34.7524 16.328 34.7806 16.343 34.8058 16.3514C34.831 16.3598 34.8604 16.364 34.894 16.364C34.9444 16.364 34.987 16.3418 35.0218 16.2974C35.0566 16.253 35.074 16.1996 35.074 16.1372C35.074 16.094 35.0668 16.058 35.0524 16.0292C35.038 16.0004 35.0128 15.9716 34.9768 15.9428C34.7488 15.77 34.4776 15.6836 34.1632 15.6836C33.9136 15.6836 33.6952 15.7364 33.508 15.842C33.3208 15.9476 33.1768 16.0982 33.076 16.2938C32.9752 16.4894 32.9248 16.7192 32.9248 16.9832C32.9248 17.2472 32.9752 17.4776 33.076 17.6744C33.1768 17.8712 33.3208 18.0224 33.508 18.128ZM36.5644 18.254C36.4804 18.254 36.4156 18.2312 36.37 18.1856C36.3244 18.14 36.3016 18.0752 36.3016 17.9912V15.9788C36.3016 15.8948 36.3244 15.83 36.37 15.7844C36.4156 15.7388 36.4804 15.716 36.5644 15.716H37.8388C38.0164 15.716 38.1052 15.788 38.1052 15.932C38.1052 16.0784 38.0164 16.1516 37.8388 16.1516H36.8488V16.7456H37.7668C37.9444 16.7456 38.0332 16.8188 38.0332 16.9652C38.0332 17.1092 37.9444 17.1812 37.7668 17.1812H36.8488V17.8184H37.8388C38.0164 17.8184 38.1052 17.8916 38.1052 18.038C38.1052 18.182 38.0164 18.254 37.8388 18.254H36.5644ZM44.4142 15.7358C44.3698 15.7658 44.3368 15.8096 44.3152 15.8672L43.7428 17.4908L43.192 15.878C43.1704 15.818 43.1368 15.7724 43.0912 15.7412C43.0456 15.71 42.9952 15.6944 42.94 15.6944C42.8872 15.6944 42.8374 15.71 42.7906 15.7412C42.7438 15.7724 42.7096 15.8168 42.688 15.8744L42.112 17.462L41.5576 15.8672C41.536 15.8096 41.5018 15.7658 41.455 15.7358C41.4082 15.7058 41.356 15.6908 41.2984 15.6908C41.2264 15.6908 41.164 15.713 41.1112 15.7574C41.0584 15.8018 41.032 15.8612 41.032 15.9356C41.032 15.9716 41.0392 16.01 41.0536 16.0508L41.8024 18.0992C41.824 18.1568 41.8618 18.2018 41.9158 18.2342C41.9698 18.2666 42.028 18.2828 42.0904 18.2828C42.1552 18.2828 42.214 18.2666 42.2668 18.2342C42.3196 18.2018 42.3568 18.1568 42.3784 18.0992L42.9292 16.5836L43.4656 18.0992C43.4872 18.1568 43.5244 18.2018 43.5772 18.2342C43.63 18.2666 43.6888 18.2828 43.7536 18.2828C43.8184 18.2828 43.8778 18.2666 43.9318 18.2342C43.9858 18.2018 44.0236 18.1568 44.0452 18.0992L44.794 16.0508C44.8084 16.0076 44.8156 15.968 44.8156 15.932C44.8156 15.8576 44.791 15.7988 44.7418 15.7556C44.6926 15.7124 44.6332 15.6908 44.5636 15.6908C44.5084 15.6908 44.4586 15.7058 44.4142 15.7358ZM46.3096 18.254C46.2256 18.254 46.1608 18.2312 46.1152 18.1856C46.0696 18.14 46.0468 18.0752 46.0468 17.9912V15.9788C46.0468 15.8948 46.0696 15.83 46.1152 15.7844C46.1608 15.7388 46.2256 15.716 46.3096 15.716H47.584C47.7616 15.716 47.8504 15.788 47.8504 15.932C47.8504 16.0784 47.7616 16.1516 47.584 16.1516H46.594V16.7456H47.512C47.6896 16.7456 47.7784 16.8188 47.7784 16.9652C47.7784 17.1092 47.6896 17.1812 47.512 17.1812H46.594V17.8184H47.584C47.7616 17.8184 47.8504 17.8916 47.8504 18.038C47.8504 18.182 47.7616 18.254 47.584 18.254H46.3096ZM51.0166 17.165C50.9362 17.0582 50.8228 16.9832 50.6764 16.94C50.8012 16.8944 50.899 16.8218 50.9698 16.7222C51.0406 16.6226 51.076 16.5068 51.076 16.3748C51.076 16.1708 50.9986 16.01 50.8438 15.8924C50.689 15.7748 50.4796 15.716 50.2156 15.716H49.3084C49.2244 15.716 49.1596 15.7388 49.114 15.7844C49.0684 15.83 49.0456 15.8948 49.0456 15.9788V17.9912C49.0456 18.0752 49.0684 18.14 49.114 18.1856C49.1596 18.2312 49.2244 18.254 49.3084 18.254H50.2516C50.5276 18.254 50.7442 18.1916 50.9014 18.0668C51.0586 17.942 51.1372 17.7728 51.1372 17.5592C51.1372 17.4032 51.097 17.2718 51.0166 17.165ZM49.5928 16.7492H50.122C50.266 16.7492 50.3722 16.7246 50.4406 16.6754C50.509 16.6262 50.5432 16.5512 50.5432 16.4504C50.5432 16.3448 50.509 16.2674 50.4406 16.2182C50.3722 16.169 50.266 16.1444 50.122 16.1444H49.5928V16.7492ZM50.5108 17.75C50.4436 17.8004 50.3356 17.8256 50.1868 17.8256H49.5928V17.1776H50.1868C50.3356 17.1776 50.4436 17.204 50.5108 17.2568C50.578 17.3096 50.6116 17.3924 50.6116 17.5052C50.6116 17.618 50.578 17.6996 50.5108 17.75Z" fill="black"/>
<path opacity="0.4" fill-rule="evenodd" clip-rule="evenodd" d="M0.121492 2.75992C-0.0798209 2.20682 -0.216449 0.688468 1.29559 0.138129C2.80764 -0.412209 3.67271 0.821583 3.88026 1.39184C4.23439 2.3648 4.62253 3.4645 5.00247 4.54099C5.30335 5.39347 5.5991 6.2314 5.86875 6.9803L6.97245 3.9479C7.13138 3.51124 7.95315 2.38665 9.46833 2.93813C10.9835 3.48961 10.8951 4.86577 10.7312 5.31598C10.2756 6.56766 9.83611 7.68762 9.40676 8.7816C9.31639 9.01188 9.22647 9.241 9.13695 9.46996L9.1395 9.46629L9.12342 9.50456C9.03804 9.723 8.95302 9.94134 8.86831 10.1604C8.8038 10.3273 8.73712 10.4945 8.66888 10.6625C8.53402 11.0284 8.41617 11.3673 8.3075 11.6798C7.78261 13.1892 7.4721 14.0821 6.4943 14.4215C4.98226 14.9718 4.12776 13.7671 3.91041 13.1699L0.121492 2.75992ZM16.8156 0.138129C15.308 -0.410575 14.4322 0.838736 14.2309 1.39184L10.442 11.8018C10.2246 12.399 10.1093 13.8728 11.6169 14.4215C13.1244 14.9702 13.9834 13.7671 14.2007 13.1699L17.9897 2.75992C18.1972 2.18966 18.3231 0.686833 16.8156 0.138129Z" fill="black"/>
</svg>
