<svg width="13" height="9" viewBox="0 0 13 9" fill="none" xmlns="http://www.w3.org/2000/svg">
<path d="M12.5325 1.4082C12.3853 0.853898 11.9516 0.417352 11.4009 0.269203C10.4027 0 6.40001 0 6.40001 0C6.40001 0 2.39735 0 1.39912 0.269203C0.848414 0.417375 0.41468 0.853898 0.267469 1.4082C0 2.41289 0 4.50909 0 4.50909C0 4.50909 0 6.6053 0.267469 7.60999C0.41468 8.16429 0.848414 8.58265 1.39912 8.7308C2.39735 9 6.40001 9 6.40001 9C6.40001 9 10.4027 9 11.4009 8.7308C11.9516 8.58265 12.3853 8.16429 12.5325 7.60999C12.8 6.6053 12.8 4.50909 12.8 4.50909C12.8 4.50909 12.8 2.41289 12.5325 1.4082ZM5.09091 6.41229V2.6059L8.43635 4.50914L5.09091 6.41229Z" fill="black"/>
</svg>
